<?xml version="1.0" encoding="UTF-8"?>
<svg id="Layer_1" data-name="Layer 1" xmlns="http://www.w3.org/2000/svg" viewBox="0 0 386.04 384.75">
  <path d="M2.75,92.82c2.57-6.61,7.49-8.96,14.41-8.73,9.34,.31,18.71,.02,28.06,.11,2.24,.02,3.48-.42,4.39-2.83,4.69-12.35,15.15-19.45,28.57-19.65,5.83-.09,11.67-.01,17.57-.01,.43-4.99,.52-9.6,1.27-14.1C101.33,21.52,124.21,1.71,150.57,1.56c34.42-.2,68.85-.08,103.28-.05,6.96,0,11.93,4.76,11.93,11.19,0,6.45-4.95,11.22-11.9,11.23-33.93,.04-67.85-.04-101.78,.04-16.5,.04-29.83,11.03-32.93,27.1-.63,3.25-.49,6.65-.75,10.63,2,0,3.56,0,5.11,0,45.03,0,90.06-.02,135.08,0,16,0,28.02,9.05,31.11,23.7,.91,4.33,.74,8.89,1.09,13.77h21.78v102.85h-22.27c0,3.57,.16,6.66-.03,9.74-.9,15.16-12.94,27.51-28.08,27.78-23.19,.42-46.4,.18-69.59,.22-1.48,0-2.96,0-5.12,0,.73,1.61,1.23,2.8,1.81,3.94,20.52,40.57,41.04,81.13,61.57,121.7,4.73,9.35,3.28,14.35-5.63,19.32h-5.24c-4.35-1.58-6.99-4.72-9.05-8.83-16.03-31.92-32.2-63.76-48.34-95.62-.55-1.08-1.18-2.12-1.78-3.18-.61,31.24-.75,62.14-.51,93.04,.05,6.9-2.05,11.79-8.45,14.58h-5.24c-6.65-2.46-8.99-7.33-8.95-14.27,.18-29.68,.08-59.36,.08-89.04v-3.87c-1.29,.95-1.9,1.97-2.44,3.04-15.92,31.44-31.88,62.86-47.69,94.35-2.14,4.26-4.62,7.88-9.12,9.79h-5.24c-9.03-4.27-10.9-9.74-6.37-18.68,20.57-40.65,41.14-81.3,61.7-121.96,.63-1.25,1.12-2.57,1.88-4.33-1.76,0-2.86,0-3.96,0-22.44,0-44.88,.08-67.31-.03-19.08-.1-31.57-12.74-31.59-31.73-.02-14.96,0-29.92-.01-44.88,0-1.31-.11-2.63-.18-4.21-10.33,0-20.29-.26-30.23,.09-6.91,.24-11.82-2.06-14.5-8.57v-57.64Zm138.24,102.05c14.46,0,28.92,.04,43.38-.01,8.77-.03,12.99-4.34,13-13.16,.01-20.57,0-41.13,0-61.7,0-9.07-4.21-13.37-13.18-13.37-28.67-.02-57.34-.01-86.01,0-9.1,0-13.34,4.17-13.35,13.19-.02,20.57-.02,41.13,0,61.7,0,9.25,4.14,13.33,13.53,13.35,14.21,.03,28.42,0,42.63,0Zm104.54-32.03c.05-6.18-4.91-11.23-11.07-11.28-6.1-.05-11.24,5-11.3,11.11-.06,6.12,4.96,11.19,11.12,11.23,6.22,.04,11.19-4.85,11.24-11.06Zm0-44.89c.06-6.19-4.88-11.24-11.04-11.3-6.09-.06-11.24,4.99-11.32,11.09-.07,6.11,4.94,11.2,11.1,11.25,6.22,.05,11.2-4.83,11.26-11.04Z"/>
  <path d="M386,150.88c0,22.71-.05,45.41,.04,68.12,.02,4.99-1.29,9.12-5.86,11.67-4.42,2.46-8.55,1.51-12.69-.99-9.71-5.86-19.46-11.64-29.29-17.31-2.12-1.22-2.86-2.6-2.85-5.03,.08-37.68,.08-75.35,0-113.03,0-2.61,.89-4,3.09-5.27,9.71-5.61,19.36-11.33,28.95-17.14,4.26-2.58,8.51-3.53,13.03-.92,4.39,2.53,5.65,6.58,5.63,11.42-.07,22.83-.03,45.66-.03,68.49Z"/>
  <path d="M174.79,129.27v42.82H107.48v-42.82h67.31Z"/>
</svg>