<?xml version="1.0" encoding="UTF-8"?>
<svg id="Layer_1" data-name="Layer 1" xmlns="http://www.w3.org/2000/svg" viewBox="0 0 386 384">
  <path d="M243.79,194.02h136.07c0,1.45,0,2.76,0,4.07,0,46.05,.02,92.1,0,138.16-.01,20.02-12.96,32.94-32.97,32.94-101.19,0-202.38,0-303.57,0-20,0-32.95-12.93-32.96-32.95-.02-46.05,0-92.1,0-138.16,0-1.21,0-2.42,0-3.92H147.18c0,1.25,0,2.55,0,3.85,0,14.12-.01,28.25,0,42.37,.01,8.37,4.86,13.2,13.28,13.2,23.33,.02,46.67,.02,70,0,8.6,0,13.31-4.8,13.32-13.53,.02-13.88,0-27.75,0-41.63v-4.4Z"/>
  <path d="M146.42,170.88H10.34c0-1.21,0-2.38,0-3.55,0-16.95-.03-33.89,0-50.84,.05-19.64,12.92-32.54,32.52-32.56,22.23-.03,44.45,0,66.68,0,1.33,0,2.66,0,4.57,0,0-2.04-.07-3.82,.01-5.6,.43-9.9-.3-20.05,1.62-29.66,3.6-18.05,20.3-31.28,38.7-31.5,27.13-.33,54.28-.38,81.41,.01,22.28,.32,39.58,18.21,40.19,40.8,.23,8.46,.04,16.93,.04,25.95,1.66,0,3.09,0,4.51,0,22.84,0,45.68-.09,68.52,.04,14.58,.08,25.73,8.63,29.02,21.96,.55,2.24,.89,4.6,.9,6.91,.08,18.54,.05,37.08,.05,55.62,0,.72-.11,1.44-.18,2.36H243.03c0-5.88,.02-11.62,0-17.36-.04-7.97-4.82-12.95-12.78-12.97-23.7-.07-47.4-.07-71.1,0-7.92,.02-12.68,5.02-12.72,13.01-.03,5.64,0,11.28,0,17.37Zm-.68-91.27h98.44c.17-.49,.31-.71,.31-.93,.03-6.13,.09-12.26,.06-18.39-.03-7.82-3.91-11.71-11.77-11.73-14.35-.03-28.69-.01-43.04,0-11.16,0-22.32-.05-33.48,.03-5.65,.04-10.21,3.69-10.44,8.83-.33,7.31-.08,14.65-.08,22.19Z"/>
  <path d="M170.26,163.45h49.01v66.27h-49.01v-66.27Z"/>
</svg>