<?xml version="1.0" encoding="UTF-8"?>
<svg id="Layer_1" data-name="Layer 1" xmlns="http://www.w3.org/2000/svg" viewBox="0 0 386 384">
  <path d="M164.61,85.49h59.7v4.01c0,35.65,0,71.3,0,106.95,0,6.89-1.74,8.65-8.57,8.65-14.71,0-29.42,.02-44.13-.01-4.93-.01-7.17-2.17-7.17-7.02-.02-37.02,0-74.04,0-111.07,0-.37,.08-.73,.16-1.52Z"/>
  <path d="M319.57,336.27c-8.88-15.37-17.53-30.35-26.18-45.33-18.43-31.93-36.89-63.84-55.22-95.82-1.11-1.93-1.78-4.4-1.8-6.62-.13-21.19-.08-42.39-.08-63.58v-3.3c.22-.09,.44-.17,.65-.26,37.8,65.48,75.61,130.96,113.69,196.92-10.37,6.01-20.55,11.9-31.07,18Z"/>
  <path d="M69.05,336.14c-10.24-5.91-20.36-11.76-30.93-17.87,37.94-65.73,75.79-131.28,113.63-196.82,.24,.03,.47,.06,.71,.09v2.72c0,21.58,.02,43.17-.05,64.75,0,1.66-.33,3.53-1.14,4.94-26.91,46.77-53.9,93.5-80.89,140.23-.37,.63-.82,1.21-1.33,1.96Z"/>
  <path d="M254.27,55.57h-11.99c0,3.75,.05,7.33-.01,10.91-.09,4.63-2.28,6.85-6.96,6.85-27.31,.03-54.61,.03-81.92,0-4.66,0-6.87-2.25-6.9-6.91-.05-11.35-.05-22.69,0-34.04,.02-4.68,2.22-6.91,6.88-6.92,27.31-.04,54.61-.03,81.92,0,4.83,0,6.93,2.24,6.99,7.2,.04,3.46,0,6.92,0,10.56h11.99c0-1.91-.1-3.85,.02-5.78,.22-3.57,2.37-5.92,5.93-5.95,12.47-.1,24.94-.3,37.4,.08,9.32,.28,16.57,8.61,16.5,17.99-.07,9.35-7.49,17.46-16.84,17.69-12.21,.3-24.44,.14-36.66,.07-3.98-.02-6.17-2.35-6.35-6.31-.08-1.72-.01-3.45-.01-5.44Z"/>
  <path d="M212.04,324.72h-35.39v-107.43h35.39v107.43Z"/>
  <path d="M32.29,328.75c10.31,5.96,20.49,11.85,30.72,17.76-3.55,8.09-8.57,13.92-17.73,14.2-7.52,.23-13.2-3.24-16.62-9.94-4.12-8.07-1.28-15.13,3.63-22.02Z"/>
  <path d="M176.61,337h35.47c1.05,8.42-.38,15.82-7.81,20.75-6.12,4.06-12.68,4.26-19.02,.48-8-4.78-9.62-12.37-8.64-21.23Z"/>
  <path d="M325.74,346.53c10.24-5.92,20.33-11.75,30.66-17.71,4.7,6.31,7.49,12.91,4.24,20.7-2.91,6.96-8.32,10.85-15.81,11.17-9.71,.42-15.23-5.44-19.1-14.16Z"/>
</svg>