<?xml version="1.0" encoding="UTF-8"?>
<svg id="Layer_1" data-name="Layer 1" xmlns="http://www.w3.org/2000/svg" viewBox="0 0 386 384.75">
  <path d="M129.5,384.75c-6.46-2.73-8.83-7.6-8.51-14.54,.39-8.45,.09-16.94,.09-25.71h142.6v18.61c0,2.37-.19,4.76,.04,7.11,.66,6.92-1.98,11.82-8.46,14.54h-125.75Z"/>
  <path d="M108.19,20.96c5.07-5.08,10.05-9.94,14.86-14.97,3.05-3.2,6.59-4.54,10.99-4.54,38.91,.07,77.81,.07,116.72,0,4.42,0,7.94,1.41,10.98,4.58,4.74,4.94,9.63,9.75,14.82,14.98,5.4-5.43,10.56-10.77,15.87-15.94,5.28-5.13,12.99-4.82,16.95,.91,1.46,2.12,2.37,5.06,2.39,7.64,.18,23.44,.19,46.89-.01,70.33-.02,2.68-1,5.86-2.65,7.9-3.59,4.43-7.8,8.4-12.01,12.28-.99,.91-2.97,1.04-4.5,1.04-40.28,.05-80.56,.04-120.83,.04-26.56,0-53.12,.05-79.68-.1-1.97-.01-4.28-1.06-5.81-2.35-3.32-2.81-6.2-6.13-9.34-9.16-2.76-2.67-4.07-5.9-4.07-9.71,0-23.44-.02-46.89,.01-70.33,0-5.21,2.19-9.23,7.15-11.22,4.99-2.01,9.23-.43,12.89,3.27,4.99,5.06,10.02,10.07,15.28,15.34Z"/>
  <path d="M97.21,273.31v-97.24h190.27v97.24H97.21Z"/>
  <path d="M97.22,153.14v-25.24h190.3v25.24H97.22Z"/>
  <path d="M105.16,296.24h174.46c-4.21,8.41-8.12,16.41-12.31,24.27-.45,.85-2.54,1.17-3.88,1.17-21.69,.07-43.39,.05-65.08,.05-25.68,0-51.37-.05-77.05,.07-2.66,.01-3.98-.88-5.08-3.19-3.51-7.36-7.22-14.64-11.06-22.37Z"/>
</svg>