<?xml version="1.0" encoding="UTF-8"?>
<svg id="Layer_2" data-name="Layer 2" xmlns="http://www.w3.org/2000/svg" viewBox="0 0 437 396.85">
  <defs>
    <style>
      .cls-1 {
        stroke-width: 3px;
      }

      .cls-1, .cls-2 {
        stroke: #fff;
        stroke-miterlimit: 10;
      }
    </style>
  </defs>
  <g>
    <path d="M0,382.28V172.52C0,155.04,0,15.2,192.28,15.2V85.12c-34.96,0-104.88,17.48-104.88,87.4v139.84h104.88v69.92H0Z"/>
    <path d="M437,15.2V224.96c0,17.48,0,157.32-192.28,157.32,0,0,0-52.44,0-69.92,34.96,0,104.88-17.48,104.88-87.4,0-96.23,0-139.84,0-139.84h-104.88V15.2h192.28Z"/>
  </g>
  <g>
    <g>
      <path class="cls-1" d="M235.83,132s-33.48-18.06-68.62,6.51c3.46,9.4,19.4,52.61,19.4,52.61l49.22-59.13Z"/>
      <path class="cls-1" d="M285.23,180.26s-1.32-37.91-40.38-55.75c-6.38,7.72-35.71,43.24-35.71,43.24l76.09,12.51Z"/>
      <path class="cls-1" d="M267.82,247.45s32.36-19.91,28.48-62.56c-9.9-1.7-55.4-9.5-55.4-9.5l26.92,72.07Z"/>
      <path class="cls-1" d="M201.17,265.48s33.24,18.49,68.7-5.63c-3.34-9.45-18.73-52.86-18.73-52.86l-49.97,58.49Z"/>
      <path class="cls-1" d="M151.86,217.22s1.09,37.92,40.05,55.99c6.43-7.68,35.97-43.02,35.97-43.02l-76.02-12.97Z"/>
      <path class="cls-1" d="M169.08,150.31s-32.32,19.99-28.34,62.63c9.9,1.68,55.42,9.38,55.42,9.38l-27.08-72.01Z"/>
    </g>
    <path class="cls-2" d="M218.5,113.27c-47.2,0-85.47,38.27-85.47,85.47s38.27,85.47,85.47,85.47,85.47-38.27,85.47-85.47-38.27-85.47-85.47-85.47Zm0,145.83c-33.34,0-60.36-27.03-60.36-60.36s27.03-60.36,60.36-60.36,60.36,27.03,60.36,60.36-27.03,60.36-60.36,60.36Z"/>
  </g>
</svg>