<?xml version="1.0" encoding="UTF-8"?>
<svg id="Layer_1" data-name="Layer 1" xmlns="http://www.w3.org/2000/svg" viewBox="0 0 386 384.75">
  <path d="M110.04,384.75c-4.97-5.2-9.94-10.41-15.21-15.93,.98-1.03,1.95-2.09,2.97-3.1,26.9-26.9,53.78-53.82,80.74-80.65,1.94-1.93,2.69-3.82,2.67-6.52-.11-17.83-.06-35.67-.06-53.51v-4.4H83.08V1.71h218.58V220.64h-97.88c-.07,1.6-.17,2.82-.17,4.03,0,18.08-.08,36.17,.1,54.25,.02,1.95,1.01,4.37,2.39,5.75,26.8,27,53.72,53.88,80.64,80.75,1.05,1.05,2.38,1.81,3.74,2.83-5.67,5.94-10.72,11.21-15.76,16.49h-.75c-11.3-11.41-22.57-22.84-33.94-34.17-.75-.75-2.21-1.09-3.34-1.1-29.53-.06-59.06-.06-88.59,0-1.13,0-2.59,.35-3.34,1.1-11.37,11.33-22.65,22.76-33.96,34.17h-.75Zm1.04-354.97V192.18h162.68V29.78H111.07Zm81.52,274.53c-7.43,7.42-15.11,15.1-22.47,22.45h44.89c-7.59-7.6-15.27-15.29-22.42-22.45Z"/>
  <path d="M251.29,52.29v117.53h-117.73V52.29h117.73Z"/>
</svg>