<?xml version="1.0" encoding="UTF-8"?>
<svg id="Layer_1" data-name="Layer 1" xmlns="http://www.w3.org/2000/svg" viewBox="0 0 453.34 453.91">
  <path d="M226.67,0C141.01,0,66.47,47.47,27.83,117.52H425.51C386.87,47.47,312.33,0,226.67,0Z"/>
  <path d="M16.92,140.21C7.22,163.63,1.31,189.01,0,215.61H453.34c-1.31-26.6-7.22-51.98-16.92-75.4H16.92Z"/>
  <path d="M16.92,313.7H436.42c9.7-23.42,15.61-48.8,16.92-75.4H0c1.31,26.6,7.22,51.98,16.92,75.4Z"/>
  <path d="M226.67,453.91c85.66,0,160.2-47.47,198.84-117.52H27.83c38.64,70.05,113.19,117.52,198.84,117.52Z"/>
</svg>