<svg id="Layer_1" data-name="Layer 1" xmlns="http://www.w3.org/2000/svg" viewBox="0 0 387.61 396.85" fill="currentColor" width="16px" height="16px"><path d="M353.76,152.86h-68.46c.56,5.12,1.26,10.02,1.6,14.95,.6,8.77-4.3,15.11-12.2,16.09-8,.99-14.54-4.31-15.92-13.06-.74-4.66-1.56-9.33-1.79-14.02-.18-3.64-1.8-4.2-4.99-4.19-35.56,.1-71.12,.06-106.68,.06-3.69,0-7.39,.15-11.06-.05-2.72-.15-3.76,.67-4.25,3.53-4.24,24.96-4.3,49.87-.08,74.84,.57,3.37,1.85,3.91,4.83,3.89,19.03-.11,38.07-.1,57.1-.03,8.22,.03,14.32,5.81,14.55,13.52,.26,8.43-5.84,14.72-14.7,14.77-16.23,.1-32.46,.03-48.69,.03-1.46,0-2.93,0-5.09,0,.61,1.99,1.03,3.59,1.58,5.15,13.04,36.74,34.02,68.13,63.4,93.84,4.5,3.94,5.89,9.97,3.67,15.73-2.28,5.92-7.19,9.28-13.66,9.3-45.82,.15-86.19-15.05-121.26-44.08-34.73-28.74-58.15-64.96-67.26-109.36-11.8-57.52,.06-110.17,35.84-156.87C66.39,42.79,100,18.68,141.7,7.43c60.05-16.2,115.97-5.84,166.27,30.52,46.93,33.93,72.5,80.82,78.69,138.24,2.26,20.99,.36,41.83-4.35,62.39-1.89,8.23-9.55,13.07-17.34,11.21-7.57-1.81-12.09-9.33-10.28-17.45,5.55-24.83,6.08-49.67,.32-74.54-.36-1.57-.79-3.12-1.26-4.93Zm-215.48-28.71h111.01c-11.38-34.8-29.8-64.68-55.26-90.37-23.36,21.16-51.28,66.46-55.75,90.37Zm-104.36,28.78c-7.03,27.52-7.1,54.64,.02,81.56H101.7c-4.42-27.35-4.38-54.34,.02-81.56H33.92Zm309.3-28.59c-14.71-40.51-71.45-86.66-110.81-90.6,.1,.28,.13,.6,.3,.82,20.58,26.41,36.55,55.2,45.5,87.66,.25,.89,1.78,2.03,2.72,2.03,20.64,.12,41.27,.09,62.29,.09ZM43.9,263.2c23.74,47.63,60.47,77.59,111.19,91.18-.17-.9-.13-1.24-.28-1.44-.96-1.3-1.95-2.58-2.95-3.86-17.88-22.99-31.63-48.19-40.62-75.93-3.22-9.92-3.17-9.94-13.77-9.94-17.52,0-35.04,0-53.57,0ZM154.34,34.14c-35.68,1.49-101.68,55.67-109.47,90.2,20.38,0,40.71,.06,61.03-.16,1.14-.01,2.88-2.08,3.3-3.51,5.71-19.3,13.6-37.66,24.11-54.79,6.6-10.76,13.93-21.08,21.03-31.75Z"></path><path d="M341.5,315.45c4.53,9.77,8.66,18.7,12.81,27.61,7.95,17.08,3.08,30.53-13.96,38.47-8.81,4.11-17.61,8.25-26.44,12.31-14.97,6.88-29.07,1.74-36.1-13.14-4.46-9.45-8.87-18.92-13.52-28.84-2.78,3.09-5.28,5.94-7.86,8.71-8.08,8.68-18.62,11.23-28.93,7.05-10.45-4.23-16.69-13.69-15.83-25.58,1.52-21.03,3.51-42.02,5.35-63.02,1.88-21.44,3.4-42.93,5.83-64.31,2.45-21.57,23.52-30.66,41.41-18.23,25.07,17.41,50.03,34.98,75.03,52.48,9.3,6.51,18.64,12.96,27.87,19.57,9.96,7.13,13.69,17.67,10.35,28.66-3.39,11.15-12.65,17.97-24.9,18.25-3.38,.08-6.77,.01-11.12,.01Z"></path></svg>